<svg id="Calque_1" data-name="Calque 1" xmlns="http://www.w3.org/2000/svg" viewBox="0 0 24 24"><defs><style>.cls-1{fill:#1d1d1b;}</style></defs><path class="cls-1" d="M4.61,15.34a1.05,1.05,0,0,0,.6.2H16.1a5,5,0,0,0,3.51-1.46l2.13-2.3a1.1,1.1,0,0,0,.26-.67,1,1,0,0,0-1-1H18.13l-2.8-3.26a.82.82,0,0,0-.61-.27H11.56L10.27,4.3a.74.74,0,0,0-.64-.37H8.37a.74.74,0,0,0-.74.73V6.57h-1A.85.85,0,0,0,6,7L4.07,10.1H3.45a1,1,0,0,0-.67.38,1,1,0,0,0-.2.71A5.65,5.65,0,0,0,4.61,15.34ZM9.48,4.91l.07.1H8.61v-.1ZM8.61,6H10.1l.33.58H8.61ZM6.74,7.55h7.91l.85,1H6.15Zm-1.18,2H16.34l.5.58H5.21Zm-2,1.58v0h0l17.42,0L18.9,13.4A4,4,0,0,1,16,14.56H5.22a4.63,4.63,0,0,1-1.66-3.41Z"/><rect class="cls-1" x="6.41" y="16.64" width="1.96" height="0.98"/><rect class="cls-1" x="3.96" y="18.11" width="1.96" height="0.98"/><rect class="cls-1" x="10.09" y="19.09" width="1.96" height="0.98"/><rect class="cls-1" x="12.04" y="17.13" width="1.96" height="0.98"/><rect class="cls-1" x="15.23" y="18.6" width="1.96" height="0.98"/><rect class="cls-1" x="18.08" y="16.15" width="1.96" height="0.98"/><rect class="cls-1" x="21.02" y="14.2" width="1.96" height="0.98"/><rect class="cls-1" x="1.02" y="15.18" width="1.96" height="0.98"/></svg>