<svg id="Calque_1" data-name="Calque 1" xmlns="http://www.w3.org/2000/svg" viewBox="0 0 24 24"><defs><style>.cls-1{fill:#1d1d1b;}</style></defs><g id="taxi"><path id="Tracé_18767" data-name="Tracé 18767" class="cls-1" d="M21,12.46l-2.68-1.2L14.24,7.12,13.63,4.8h-4L9.07,7.12H5.13l-3,4.54v5.68H3.72a2.38,2.38,0,0,0,4.64,0H15.1a2.38,2.38,0,0,0,4.64,0h2.13V13.75A1.41,1.41,0,0,0,21,12.46ZM10.57,6h2.17L13,7.12H10.27ZM11,8.27v2.9H7.39L9,8.27Zm1.15,0h1.57l2.84,2.9H12.19ZM6,18.1a1.29,1.29,0,1,1,1.28-1.28A1.28,1.28,0,0,1,6,18.1Zm3.27-1.92h-1A2.39,2.39,0,0,0,5.4,14.52a2.36,2.36,0,0,0-1.65,1.66H3.28V12L5.76,8.27H7.69L5.42,12.32H9.31Zm3.28,0H10.45V12.32h2.14v3.86Zm4.83,1.92a1.29,1.29,0,1,1,1.28-1.28,1.28,1.28,0,0,1-1.28,1.28Zm3.3-1.92h-1a2.38,2.38,0,0,0-4.59,0h-1.4V12.32h4.13l2.69,1.2a.28.28,0,0,1,.18.23Z"/></g></svg>