<svg id="Calque_1" data-name="Calque 1" xmlns="http://www.w3.org/2000/svg" viewBox="0 0 24 24"><defs><style>.cls-1{fill:#1d1d1b;}</style></defs><g id="avion"><path id="Tracé_18769" data-name="Tracé 18769" class="cls-1" d="M19.7,7A1.93,1.93,0,0,0,17,4.3l-3,3L10.12,7l1-1-.69-.69L8.84,6.94l-3-.2L3.74,8.81,10.26,11,8,13.37l-2.4.46L3.74,15.51,7.11,16.9,8.5,20.25l1.68-1.78.48-2.38L13,13.76l2.25,6.5,2.07-2.12-.21-3,1.55-1.55L18,12.91l-1,1L16.73,10ZM6.23,7.73l6.87.46L11,10.28,5.57,8.4Zm3.54,7.88L9.29,18l-.46.46-1-2.28-2.29-1L6,14.73l2.4-.47L17.66,5A1,1,0,1,1,19,6.33Zm6.54,2.16-.67.67L13.74,13l2.08-2.08Z"/></g></svg>