<svg id="Calque_1" data-name="Calque 1" xmlns="http://www.w3.org/2000/svg" viewBox="0 0 24 24"><defs><style>.cls-1{fill:#1d1d1b;}</style></defs><path id="Tracé_18768" data-name="Tracé 18768" class="cls-1" d="M21.91,16.41A14.16,14.16,0,0,0,17.54,6.22a9.23,9.23,0,0,0-6.38-2.55H2.09V17h2.8a2,2,0,0,0-.06,2.16H2.09v1.18H21.91V19.15H18A2,2,0,0,0,18.14,17h3.77Zm-4-8.09a12.69,12.69,0,0,1,1.45,2.25H10.88a1.13,1.13,0,1,1,0-2.25h7Zm-14.65,0H5.06a1.13,1.13,0,1,1,0,2.25H3.25Zm0,3.41H5.06a2.29,2.29,0,1,0,0-4.57H3.25V4.83h7.91a8.13,8.13,0,0,1,5.68,2.33h-6a2.29,2.29,0,1,0,0,4.57h9a14.21,14.21,0,0,1,.55,1.79H3.25ZM6.56,19a.86.86,0,1,1,.86-.86h0A.87.87,0,0,1,6.56,19Zm1.73.17A2,2,0,0,0,8.23,17H14.6a2,2,0,0,0,.14,2.16Zm8.08-.33a.86.86,0,1,1,.85-.86.85.85,0,0,1-.85.86Zm-13.12-3V14.68H20.63c.05.38.09.76.11,1.15Z"/></svg>