<?xml version="1.0" encoding="utf-8"?>
<!-- Generator: Adobe Illustrator 26.5.0, SVG Export Plug-In . SVG Version: 6.00 Build 0)  -->
<svg version="1.1" id="Calque_1" xmlns="http://www.w3.org/2000/svg" xmlns:xlink="http://www.w3.org/1999/xlink" x="0px" y="0px"
	 viewBox="0 0 24 24" style="enable-background:new 0 0 24 24;" xml:space="preserve">
<path d="M11.8,21.4c-0.7,0-1.4-0.3-2-0.8l-0.1-0.1C5,15.9,1.9,13,2,8.9C2.1,7,3,5.3,4.5,4.1c2.3-1.6,5.2-1.4,7.3,0.3
	c2-1.7,5-1.9,7.3-0.3c1.5,1.2,2.4,2.9,2.5,4.8c0.1,4-3,7-7.7,11.5l-0.1,0.1C13.2,21.1,12.5,21.4,11.8,21.4z M7.9,5.3
	C7.2,5.3,6.5,5.5,5.8,6C4.9,6.7,4.3,7.8,4.3,9c-0.1,3,2.7,5.7,7,9.8l0.1,0.1c0.2,0.2,0.5,0.2,0.7,0l0.1-0.1c4.3-4.1,7.1-6.8,7-9.8
	c0-1.2-0.6-2.3-1.6-3c-1.6-1.1-3.8-0.8-5,0.8l-0.9,1.2l-0.9-1.2C10.1,5.8,9,5.3,7.9,5.3z"/>
</svg>
