<svg xmlns="http://www.w3.org/2000/svg" width="16" height="16" viewBox="0 0 16 16">
  <path id="help" d="M9631-1387a8,8,0,0,1,8-8,8,8,0,0,1,8,8,8,8,0,0,1-8,8A8,8,0,0,1,9631-1387Zm1.454,0a6.555,6.555,0,0,0,6.548,6.544,6.551,6.551,0,0,0,6.543-6.544,6.552,6.552,0,0,0-6.543-6.547A6.556,6.556,0,0,0,9632.452-1387Zm5.441,4.17a.834.834,0,0,1-.27-.633.834.834,0,0,1,.27-.633.917.917,0,0,1,.656-.261.929.929,0,0,1,.659.261.837.837,0,0,1,.272.633.844.844,0,0,1-.272.636.939.939,0,0,1-.659.258A.916.916,0,0,1,9637.894-1382.829Zm-.124-2.462,0-.329a1.712,1.712,0,0,1,.2-1.024,2.243,2.243,0,0,1,.824-.76,2.8,2.8,0,0,0,.754-.59,1.059,1.059,0,0,0,.2-.662v0a.858.858,0,0,0-.3-.672,1.163,1.163,0,0,0-.78-.261,1.111,1.111,0,0,0-.785.281,1.065,1.065,0,0,0-.33.73l0,.046H9636v-.056a2.229,2.229,0,0,1,.763-1.676,2.9,2.9,0,0,1,2-.642,2.984,2.984,0,0,1,1.958.61,1.958,1.958,0,0,1,.742,1.588v.007a1.981,1.981,0,0,1-.3,1.1,2.665,2.665,0,0,1-.916.825,2.609,2.609,0,0,0-.763.587,1.062,1.062,0,0,0-.2.675v.232Z" transform="translate(-9630.998 1395.001)"/>
</svg>
