<svg id="Calque_1" data-name="Calque 1" xmlns="http://www.w3.org/2000/svg" viewBox="0 0 24 24"><defs><style>.cls-1{fill:#010101;}</style></defs><path class="cls-1" d="M12,8.41A3.59,3.59,0,1,0,15.59,12,3.59,3.59,0,0,0,12,8.41Zm0,5.92A2.33,2.33,0,1,1,14.33,12,2.33,2.33,0,0,1,12,14.33Z"/><path class="cls-1" d="M14.89,5C13.6,5,10.41,5,9.12,5A4.22,4.22,0,0,0,6.18,6.18C4.84,7.52,5,9.34,5,12s-.15,4.49,1.17,5.82S9.37,19,12,19s3.63,0,4.58-.37A3.83,3.83,0,0,0,19,14.88c.06-1.29.05-4.48,0-5.77A3.87,3.87,0,0,0,14.89,5Zm2,11.89c-.89.88-2.11.8-4.94.8s-4.09,0-4.94-.81S6.24,14.37,6.24,12c0-3.23-.33-5.55,2.9-5.71.75,0,1,0,2.84,0l0,0c3.11,0,5.55-.32,5.7,2.91,0,.74,0,1,0,2.83,0,2.88.05,4.06-.81,4.93Z"/><circle class="cls-1" cx="15.74" cy="8.26" r="0.84"/></svg>