<svg xmlns="http://www.w3.org/2000/svg" width="16" height="16" viewBox="0 0 16 16">
  <path id="leaf" d="M6.17,11.719A10.856,10.856,0,0,1,8.093,9.8a8.492,8.492,0,0,1,2.243-1.437s-.561.878-1.442,2.155c-.16.319-.4.638-.641,1.037-.24.319-.4.718-.641,1.117s-.4.8-.641,1.2c-.16.4-.481.878-.641,1.277s-.4.878-.561,1.277c-.08.16-.16.4-.24.559a6.823,6.823,0,0,0,8.33-1.117c4.005-4.31.481-6.145,4.165-13.727,0,0-8.17-1.676-14.018,4.07a6.774,6.774,0,0,0,0,9.577,10.635,10.635,0,0,1,.561-1.437A9.665,9.665,0,0,1,6.17,11.719Z" transform="translate(-2.025 -1.915)"/>
</svg>
